G04*
G04 #@! TF.GenerationSoftware,Altium Limited,Altium Designer,23.11.1 (41)*
G04*
G04 Layer_Color=65535*
%FSLAX25Y25*%
%MOIN*%
G70*
G04*
G04 #@! TF.SameCoordinates,D13407C9-E82C-4D22-A7C2-A8B21F9BC201*
G04*
G04*
G04 #@! TF.FilePolarity,Positive*
G04*
G01*
G75*
%ADD10C,0.00787*%
%ADD11C,0.00394*%
%ADD12C,0.01000*%
%ADD13C,0.00591*%
%ADD14C,0.00500*%
G36*
X153053Y174986D02*
X153614D01*
Y174706D01*
X153895D01*
Y174145D01*
X154175D01*
Y173303D01*
X153895D01*
Y172742D01*
X153614D01*
Y172461D01*
X153334D01*
Y172181D01*
X153053D01*
Y171339D01*
X153334D01*
Y170778D01*
X153614D01*
Y170217D01*
X152211D01*
Y170778D01*
X151931D01*
Y171619D01*
X151650D01*
Y171900D01*
X151089D01*
Y170778D01*
X150809D01*
Y170217D01*
X144636D01*
Y171619D01*
X144917D01*
Y172461D01*
X144636D01*
Y172181D01*
X144355D01*
Y171619D01*
X144075D01*
Y171058D01*
X143794D01*
Y170778D01*
X142672D01*
Y171619D01*
X142391D01*
Y172461D01*
X142111D01*
Y171900D01*
X141830D01*
Y170778D01*
X141550D01*
Y170217D01*
X139024D01*
Y171058D01*
X137060D01*
Y170497D01*
X136780D01*
Y170217D01*
X135377D01*
Y170497D01*
X135658D01*
Y171058D01*
X135938D01*
Y171619D01*
X136219D01*
Y171900D01*
X136499D01*
Y172461D01*
X136780D01*
Y173022D01*
X137060D01*
Y173303D01*
X137341D01*
Y173864D01*
X137622D01*
Y174145D01*
X137902D01*
Y174706D01*
X138183D01*
Y174986D01*
X138463D01*
Y175267D01*
X139586D01*
Y174145D01*
X139866D01*
Y172181D01*
X140147D01*
Y170778D01*
X140427D01*
Y171339D01*
X140708D01*
Y171900D01*
Y172181D01*
X140989D01*
Y173022D01*
X141269D01*
Y173864D01*
X141550D01*
Y174706D01*
X141830D01*
Y175267D01*
X142953D01*
Y174706D01*
X143233D01*
Y173022D01*
X143514D01*
Y172742D01*
X143794D01*
Y173022D01*
X144075D01*
Y173583D01*
X144355D01*
Y173864D01*
X144636D01*
Y174425D01*
X144917D01*
Y174706D01*
X145197D01*
Y174986D01*
X145478D01*
Y175267D01*
X146600D01*
Y174706D01*
X146319D01*
Y172461D01*
X146039D01*
Y171058D01*
X146319D01*
Y171339D01*
X146600D01*
Y171900D01*
X146881D01*
Y172181D01*
X147442D01*
Y172461D01*
X147722D01*
Y172742D01*
X148003D01*
Y173022D01*
X148284D01*
Y173303D01*
X148564D01*
Y173583D01*
X148845D01*
Y174145D01*
X147722D01*
Y173864D01*
X147161D01*
Y174145D01*
X146881D01*
Y174706D01*
X147161D01*
Y174986D01*
X147722D01*
Y175267D01*
X149406D01*
Y174986D01*
X149686D01*
Y174706D01*
X149967D01*
Y173022D01*
X149686D01*
Y172742D01*
X149406D01*
Y172461D01*
X149125D01*
Y172181D01*
X148564D01*
Y171900D01*
X148284D01*
Y171619D01*
X148003D01*
Y171058D01*
X149686D01*
Y171619D01*
X149967D01*
Y172742D01*
X150248D01*
Y173864D01*
X150528D01*
Y174986D01*
X150809D01*
Y175267D01*
X153053D01*
Y174986D01*
D02*
G37*
%LPC*%
G36*
X138744Y173303D02*
X138183D01*
Y172742D01*
X137902D01*
Y172181D01*
X138744D01*
Y173303D01*
D02*
G37*
G36*
X152492Y174145D02*
X151650D01*
Y173022D01*
X152492D01*
Y173303D01*
X152773D01*
Y173864D01*
X152492D01*
Y174145D01*
D02*
G37*
%LPD*%
D10*
X140194Y150500D02*
G03*
X140194Y150500I-394J0D01*
G01*
D11*
X138300Y149500D02*
X152300D01*
X138300D02*
Y163500D01*
X152300Y149500D02*
Y163500D01*
X138300D02*
X152300D01*
D12*
X154600Y158799D02*
X156600D01*
X134000Y162736D02*
X136000D01*
D13*
X158750Y159775D02*
X158226Y159250D01*
Y158201D01*
X158750Y157676D01*
X160849D01*
X161374Y158201D01*
Y159250D01*
X160849Y159775D01*
X158750Y160825D02*
X158226Y161349D01*
Y162399D01*
X158750Y162924D01*
X159275D01*
X159800Y162399D01*
Y161874D01*
Y162399D01*
X160325Y162924D01*
X160849D01*
X161374Y162399D01*
Y161349D01*
X160849Y160825D01*
X129551Y161912D02*
X129026Y161388D01*
Y160338D01*
X129551Y159813D01*
X131649D01*
X132174Y160338D01*
Y161388D01*
X131649Y161912D01*
X132174Y165061D02*
Y162962D01*
X130075Y165061D01*
X129551D01*
X129026Y164536D01*
Y163487D01*
X129551Y162962D01*
D14*
X153651Y150900D02*
X154651D01*
X154151D01*
Y147900D01*
X153651D01*
X154651D01*
X158150Y150400D02*
X157650Y150900D01*
X156650D01*
X156150Y150400D01*
Y148400D01*
X156650Y147900D01*
X157650D01*
X158150Y148400D01*
X159149Y147900D02*
X160149D01*
X159649D01*
Y150900D01*
X159149Y150400D01*
M02*
