G04*
G04 #@! TF.GenerationSoftware,Altium Limited,Altium Designer,23.11.1 (41)*
G04*
G04 Layer_Physical_Order=2*
G04 Layer_Color=16711680*
%FSLAX25Y25*%
%MOIN*%
G70*
G04*
G04 #@! TF.SameCoordinates,D13407C9-E82C-4D22-A7C2-A8B21F9BC201*
G04*
G04*
G04 #@! TF.FilePolarity,Positive*
G04*
G01*
G75*
%ADD12C,0.01000*%
%ADD23C,0.16535*%
%ADD24C,0.02400*%
%ADD25C,0.02362*%
%ADD26R,0.03937X0.11024*%
%ADD27R,0.02362X0.06693*%
%ADD28R,0.02165X0.02165*%
G36*
X191300Y136000D02*
X100000D01*
Y177500D01*
X191300D01*
Y136000D01*
D02*
G37*
%LPC*%
G36*
X159258Y158300D02*
X158542D01*
X157880Y158026D01*
X157476Y157622D01*
X139300D01*
X138871Y157536D01*
X138507Y157293D01*
X138507Y157293D01*
X138319Y157105D01*
X137729Y157222D01*
X137610Y157509D01*
X137109Y158010D01*
X136454Y158281D01*
X135746D01*
X135091Y158010D01*
X134703Y157622D01*
X134100D01*
X134100Y157622D01*
X133671Y157536D01*
X133307Y157293D01*
X133307Y157293D01*
X132322Y156308D01*
X132079Y155944D01*
X131993Y155515D01*
X131993Y155515D01*
Y154246D01*
X131334D01*
Y146353D01*
X134896D01*
Y154246D01*
X134237D01*
Y155050D01*
X134309Y155123D01*
X134959D01*
X135091Y154990D01*
X135746Y154719D01*
X136188D01*
X136255Y154246D01*
X136255D01*
Y146353D01*
X136847D01*
Y144867D01*
X136201D01*
Y141501D01*
X136376D01*
X136583Y141001D01*
X136290Y140709D01*
X136019Y140054D01*
Y139346D01*
X136290Y138691D01*
X136791Y138190D01*
X137446Y137919D01*
X138154D01*
X138809Y138190D01*
X139310Y138691D01*
X139581Y139346D01*
Y140054D01*
X139310Y140709D01*
X139017Y141001D01*
X139082Y141501D01*
X139567D01*
Y144867D01*
X139090D01*
Y146353D01*
X139817D01*
Y154246D01*
X139157D01*
Y154771D01*
X139765Y155378D01*
X157476D01*
X157880Y154974D01*
X158542Y154700D01*
X159258D01*
X159920Y154974D01*
X160426Y155480D01*
X160700Y156142D01*
Y156858D01*
X160426Y157520D01*
X159920Y158026D01*
X159258Y158300D01*
D02*
G37*
G36*
X181573Y164568D02*
X179827D01*
X178113Y164227D01*
X176500Y163558D01*
X175047Y162588D01*
X173812Y161353D01*
X172842Y159900D01*
X172173Y158287D01*
X171832Y156573D01*
Y154827D01*
X172173Y153113D01*
X172842Y151500D01*
X173812Y150047D01*
X175047Y148812D01*
X176500Y147842D01*
X178113Y147173D01*
X179827Y146832D01*
X181573D01*
X183287Y147173D01*
X184900Y147842D01*
X186353Y148812D01*
X187588Y150047D01*
X188558Y151500D01*
X189227Y153113D01*
X189568Y154827D01*
Y156573D01*
X189227Y158287D01*
X188558Y159900D01*
X187588Y161353D01*
X186353Y162588D01*
X184900Y163558D01*
X183287Y164227D01*
X181573Y164568D01*
D02*
G37*
G36*
X111173D02*
X109427D01*
X107713Y164227D01*
X106100Y163558D01*
X104647Y162588D01*
X103412Y161353D01*
X102442Y159900D01*
X101773Y158287D01*
X101432Y156573D01*
Y154827D01*
X101773Y153113D01*
X102442Y151500D01*
X103412Y150047D01*
X104647Y148812D01*
X106100Y147842D01*
X107713Y147173D01*
X109427Y146832D01*
X111173D01*
X112887Y147173D01*
X114500Y147842D01*
X115953Y148812D01*
X117188Y150047D01*
X118158Y151500D01*
X118827Y153113D01*
X119168Y154827D01*
Y156573D01*
X118827Y158287D01*
X118158Y159900D01*
X117188Y161353D01*
X115953Y162588D01*
X114500Y163558D01*
X112887Y164227D01*
X111173Y164568D01*
D02*
G37*
G36*
X149660Y154246D02*
X146098D01*
Y146353D01*
X146718D01*
Y145037D01*
X146290Y144609D01*
X146019Y143954D01*
Y143246D01*
X146290Y142591D01*
X146791Y142090D01*
X147446Y141819D01*
X148154D01*
X148809Y142090D01*
X149310Y142591D01*
X149581Y143246D01*
Y143954D01*
X149310Y144609D01*
X148961Y144958D01*
Y146353D01*
X149660D01*
Y154246D01*
D02*
G37*
G36*
X144738D02*
X141176D01*
Y146353D01*
X141807D01*
Y145026D01*
X141390Y144609D01*
X141119Y143954D01*
Y143246D01*
X141390Y142591D01*
X141891Y142090D01*
X142546Y141819D01*
X143254D01*
X143909Y142090D01*
X144410Y142591D01*
X144681Y143246D01*
Y143954D01*
X144410Y144609D01*
X144050Y144969D01*
Y146353D01*
X144738D01*
Y154246D01*
D02*
G37*
G36*
X154581D02*
X151019D01*
Y146353D01*
X151678D01*
Y144897D01*
X151290Y144509D01*
X151019Y143854D01*
Y143146D01*
X151290Y142491D01*
X151791Y141990D01*
X152446Y141719D01*
X153154D01*
X153809Y141990D01*
X154310Y142491D01*
X154581Y143146D01*
Y143854D01*
X154310Y144509D01*
X153922Y144897D01*
Y146353D01*
X154581D01*
Y154246D01*
D02*
G37*
%LPD*%
D12*
X133115Y150300D02*
Y155515D01*
X138036Y150300D02*
Y155236D01*
X139300Y156500D02*
X158900D01*
X138036Y155236D02*
X139300Y156500D01*
X134100D02*
X136100D01*
X133107Y150293D02*
X133115Y150300D01*
Y155515D02*
X134100Y156500D01*
X147839Y143639D02*
Y150261D01*
X152800Y143500D02*
Y150300D01*
X142929Y143629D02*
Y150271D01*
X137968Y143268D02*
Y150232D01*
X137884Y143184D02*
X137968Y143268D01*
X147800Y143600D02*
X147839Y143639D01*
Y150261D02*
X147879Y150300D01*
X142929Y150271D02*
X142957Y150300D01*
X142900Y143600D02*
X142929Y143629D01*
X137850Y143150D02*
X137884Y143184D01*
X137800Y139700D02*
X137850Y139750D01*
Y143150D01*
D23*
X110300Y155700D02*
D03*
X180700D02*
D03*
D24*
X158900Y156500D02*
D03*
D25*
X136100D02*
D03*
X130900Y166700D02*
D03*
X128900Y143100D02*
D03*
X157700Y143600D02*
D03*
X152700Y163500D02*
D03*
X152800Y143500D02*
D03*
X147800Y143600D02*
D03*
X142900D02*
D03*
X137800Y139700D02*
D03*
D26*
X125831Y163489D02*
D03*
X165005D02*
D03*
D27*
X133115Y150300D02*
D03*
X138036D02*
D03*
X142957D02*
D03*
X147879D02*
D03*
X152800D02*
D03*
X157721D02*
D03*
D28*
X133284Y143184D02*
D03*
X137884D02*
D03*
M02*
